<mxfile host="app.diagrams.net" agent="Mozilla/5.0 (Windows NT 10.0; Win64; x64) AppleWebKit/537.36 (KHTML, like Gecko) Chrome/136.0.0.0 Safari/537.36" version="26.1.3">
  <diagram name="Page-1" id="pqWXm5i6kp7MMDSexmiv">
    <mxGraphModel dx="651" dy="696" grid="1" gridSize="10" guides="1" tooltips="1" connect="1" arrows="1" fold="1" page="1" pageScale="1" pageWidth="850" pageHeight="1100" math="0" shadow="0">
      <root>
        <mxCell id="0" />
        <mxCell id="1" parent="0" />
        <mxCell id="c5EZf8_61AzU6FCxs0_6-3" value="" style="sketch=0;points=[[0.5,0,0],[1,0.5,0],[0.5,1,0],[0,0.5,0],[0.145,0.145,0],[0.8555,0.145,0],[0.855,0.8555,0],[0.145,0.855,0]];verticalLabelPosition=bottom;html=1;verticalAlign=top;aspect=fixed;align=center;pointerEvents=1;shape=mxgraph.cisco19.rect;prIcon=router;fillColor=#FAFAFA;strokeColor=#005073;" vertex="1" parent="1">
          <mxGeometry x="275" y="320" width="50" height="50" as="geometry" />
        </mxCell>
        <mxCell id="c5EZf8_61AzU6FCxs0_6-15" value="" style="group" vertex="1" connectable="0" parent="1">
          <mxGeometry x="245" y="470" width="110" height="103" as="geometry" />
        </mxCell>
        <mxCell id="c5EZf8_61AzU6FCxs0_6-1" value="" style="fontColor=#0066CC;verticalAlign=top;verticalLabelPosition=bottom;labelPosition=center;align=center;html=1;outlineConnect=0;fillColor=#CCCCCC;strokeColor=#6881B3;gradientColor=none;gradientDirection=north;strokeWidth=2;shape=mxgraph.networks.pc;" vertex="1" parent="c5EZf8_61AzU6FCxs0_6-15">
          <mxGeometry x="5" width="100" height="70" as="geometry" />
        </mxCell>
        <mxCell id="c5EZf8_61AzU6FCxs0_6-4" value="Window 10 client&lt;div&gt;Wazuh Agent&lt;/div&gt;" style="text;html=1;align=center;verticalAlign=middle;resizable=0;points=[];autosize=1;strokeColor=none;fillColor=none;" vertex="1" parent="c5EZf8_61AzU6FCxs0_6-15">
          <mxGeometry y="63" width="110" height="40" as="geometry" />
        </mxCell>
        <mxCell id="c5EZf8_61AzU6FCxs0_6-16" value="" style="group" vertex="1" connectable="0" parent="1">
          <mxGeometry x="270" y="90" width="60" height="60" as="geometry" />
        </mxCell>
        <mxCell id="c5EZf8_61AzU6FCxs0_6-9" value="Shuffle" style="text;html=1;align=center;verticalAlign=middle;resizable=0;points=[];autosize=1;strokeColor=none;fillColor=none;" vertex="1" parent="c5EZf8_61AzU6FCxs0_6-16">
          <mxGeometry y="30" width="60" height="30" as="geometry" />
        </mxCell>
        <mxCell id="c5EZf8_61AzU6FCxs0_6-10" value="" style="image;aspect=fixed;perimeter=ellipsePerimeter;html=1;align=center;shadow=0;dashed=0;spacingTop=3;image=img/lib/active_directory/internet_cloud.svg;" vertex="1" parent="c5EZf8_61AzU6FCxs0_6-16">
          <mxGeometry x="5" width="50" height="31.5" as="geometry" />
        </mxCell>
        <mxCell id="c5EZf8_61AzU6FCxs0_6-17" value="" style="group" vertex="1" connectable="0" parent="1">
          <mxGeometry x="265" y="213.5" width="60" height="48" as="geometry" />
        </mxCell>
        <mxCell id="c5EZf8_61AzU6FCxs0_6-6" value="" style="image;aspect=fixed;perimeter=ellipsePerimeter;html=1;align=center;shadow=0;dashed=0;spacingTop=3;image=img/lib/active_directory/internet_cloud.svg;" vertex="1" parent="c5EZf8_61AzU6FCxs0_6-17">
          <mxGeometry x="5" width="50" height="31.5" as="geometry" />
        </mxCell>
        <mxCell id="c5EZf8_61AzU6FCxs0_6-8" value="Internet" style="text;html=1;align=center;verticalAlign=middle;resizable=0;points=[];autosize=1;strokeColor=none;fillColor=none;" vertex="1" parent="c5EZf8_61AzU6FCxs0_6-17">
          <mxGeometry y="18" width="60" height="30" as="geometry" />
        </mxCell>
        <mxCell id="c5EZf8_61AzU6FCxs0_6-18" value="" style="group" vertex="1" connectable="0" parent="1">
          <mxGeometry x="445" y="219" width="70" height="56" as="geometry" />
        </mxCell>
        <mxCell id="c5EZf8_61AzU6FCxs0_6-11" value="TheHive" style="text;html=1;align=center;verticalAlign=middle;resizable=0;points=[];autosize=1;strokeColor=none;fillColor=none;" vertex="1" parent="c5EZf8_61AzU6FCxs0_6-18">
          <mxGeometry y="26" width="70" height="30" as="geometry" />
        </mxCell>
        <mxCell id="c5EZf8_61AzU6FCxs0_6-12" value="" style="image;aspect=fixed;perimeter=ellipsePerimeter;html=1;align=center;shadow=0;dashed=0;spacingTop=3;image=img/lib/active_directory/internet_cloud.svg;" vertex="1" parent="c5EZf8_61AzU6FCxs0_6-18">
          <mxGeometry x="10" width="50" height="31.5" as="geometry" />
        </mxCell>
        <mxCell id="c5EZf8_61AzU6FCxs0_6-19" value="" style="group" vertex="1" connectable="0" parent="1">
          <mxGeometry x="470" y="390" width="110" height="103" as="geometry" />
        </mxCell>
        <mxCell id="c5EZf8_61AzU6FCxs0_6-20" value="" style="fontColor=#0066CC;verticalAlign=top;verticalLabelPosition=bottom;labelPosition=center;align=center;html=1;outlineConnect=0;fillColor=#CCCCCC;strokeColor=#6881B3;gradientColor=none;gradientDirection=north;strokeWidth=2;shape=mxgraph.networks.pc;" vertex="1" parent="c5EZf8_61AzU6FCxs0_6-19">
          <mxGeometry x="5" width="100" height="70" as="geometry" />
        </mxCell>
        <mxCell id="c5EZf8_61AzU6FCxs0_6-21" value="SOC Analyst" style="text;html=1;align=center;verticalAlign=middle;resizable=0;points=[];autosize=1;strokeColor=none;fillColor=none;" vertex="1" parent="c5EZf8_61AzU6FCxs0_6-19">
          <mxGeometry x="10" y="68" width="90" height="30" as="geometry" />
        </mxCell>
        <mxCell id="c5EZf8_61AzU6FCxs0_6-22" value="Router" style="text;html=1;align=center;verticalAlign=middle;resizable=0;points=[];autosize=1;strokeColor=none;fillColor=none;" vertex="1" parent="1">
          <mxGeometry x="270" y="368" width="60" height="30" as="geometry" />
        </mxCell>
        <mxCell id="c5EZf8_61AzU6FCxs0_6-24" style="rounded=0;orthogonalLoop=1;jettySize=auto;html=1;exitX=0.5;exitY=0.07;exitDx=0;exitDy=0;exitPerimeter=0;entryX=0.57;entryY=0.047;entryDx=0;entryDy=0;entryPerimeter=0;shape=link;fillColor=#f5f5f5;strokeColor=light-dark(#888686, #959595);" edge="1" parent="1" source="c5EZf8_61AzU6FCxs0_6-1" target="c5EZf8_61AzU6FCxs0_6-22">
          <mxGeometry relative="1" as="geometry" />
        </mxCell>
        <mxCell id="c5EZf8_61AzU6FCxs0_6-25" value="1. Send events" style="edgeLabel;html=1;align=center;verticalAlign=middle;resizable=0;points=[];" vertex="1" connectable="0" parent="c5EZf8_61AzU6FCxs0_6-24">
          <mxGeometry x="-0.2931" y="-1" relative="1" as="geometry">
            <mxPoint as="offset" />
          </mxGeometry>
        </mxCell>
        <mxCell id="c5EZf8_61AzU6FCxs0_6-26" value="" style="group" vertex="1" connectable="0" parent="1">
          <mxGeometry x="50" y="219" width="110" height="51.5" as="geometry" />
        </mxCell>
        <mxCell id="c5EZf8_61AzU6FCxs0_6-13" value="Wazuh Manager" style="text;html=1;align=center;verticalAlign=middle;resizable=0;points=[];autosize=1;strokeColor=none;fillColor=none;" vertex="1" parent="c5EZf8_61AzU6FCxs0_6-26">
          <mxGeometry y="19.3125" width="110" height="30" as="geometry" />
        </mxCell>
        <mxCell id="c5EZf8_61AzU6FCxs0_6-14" value="" style="image;aspect=fixed;perimeter=ellipsePerimeter;html=1;align=center;shadow=0;dashed=0;spacingTop=3;image=img/lib/active_directory/internet_cloud.svg;container=1;" vertex="1" parent="c5EZf8_61AzU6FCxs0_6-26">
          <mxGeometry x="30" width="50" height="31.5" as="geometry" />
        </mxCell>
        <mxCell id="c5EZf8_61AzU6FCxs0_6-27" style="edgeStyle=orthogonalEdgeStyle;rounded=0;orthogonalLoop=1;jettySize=auto;html=1;exitX=0.5;exitY=0;exitDx=0;exitDy=0;exitPerimeter=0;entryX=0.583;entryY=0.617;entryDx=0;entryDy=0;entryPerimeter=0;shape=link;strokeColor=#808080;" edge="1" parent="1" source="c5EZf8_61AzU6FCxs0_6-3" target="c5EZf8_61AzU6FCxs0_6-8">
          <mxGeometry relative="1" as="geometry" />
        </mxCell>
        <mxCell id="c5EZf8_61AzU6FCxs0_6-31" style="rounded=0;orthogonalLoop=1;jettySize=auto;html=1;exitX=0;exitY=0.5;exitDx=0;exitDy=0;shape=link;strokeColor=#808080;" edge="1" parent="1" source="c5EZf8_61AzU6FCxs0_6-6" target="c5EZf8_61AzU6FCxs0_6-14">
          <mxGeometry relative="1" as="geometry" />
        </mxCell>
        <mxCell id="c5EZf8_61AzU6FCxs0_6-32" value="2. Receive events" style="edgeLabel;html=1;align=center;verticalAlign=middle;resizable=0;points=[];" vertex="1" connectable="0" parent="c5EZf8_61AzU6FCxs0_6-31">
          <mxGeometry x="0.1903" y="2" relative="1" as="geometry">
            <mxPoint as="offset" />
          </mxGeometry>
        </mxCell>
        <mxCell id="c5EZf8_61AzU6FCxs0_6-33" style="rounded=0;orthogonalLoop=1;jettySize=auto;html=1;exitX=0.5;exitY=0;exitDx=0;exitDy=0;entryX=0;entryY=0.5;entryDx=0;entryDy=0;shape=link;strokeColor=#808080;" edge="1" parent="1" source="c5EZf8_61AzU6FCxs0_6-14" target="c5EZf8_61AzU6FCxs0_6-10">
          <mxGeometry relative="1" as="geometry" />
        </mxCell>
        <mxCell id="c5EZf8_61AzU6FCxs0_6-34" value="3. Send alerts" style="edgeLabel;html=1;align=center;verticalAlign=middle;resizable=0;points=[];" vertex="1" connectable="0" parent="c5EZf8_61AzU6FCxs0_6-33">
          <mxGeometry x="0.0873" y="-2" relative="1" as="geometry">
            <mxPoint as="offset" />
          </mxGeometry>
        </mxCell>
        <mxCell id="c5EZf8_61AzU6FCxs0_6-35" style="rounded=0;orthogonalLoop=1;jettySize=auto;html=1;entryX=0.432;entryY=-0.109;entryDx=0;entryDy=0;entryPerimeter=0;shape=link;strokeColor=#B9E0A5;" edge="1" parent="1" source="c5EZf8_61AzU6FCxs0_6-8" target="c5EZf8_61AzU6FCxs0_6-9">
          <mxGeometry relative="1" as="geometry" />
        </mxCell>
        <mxCell id="c5EZf8_61AzU6FCxs0_6-36" value="4. Enrich IOCs" style="edgeLabel;html=1;align=center;verticalAlign=middle;resizable=0;points=[];" vertex="1" connectable="0" parent="c5EZf8_61AzU6FCxs0_6-35">
          <mxGeometry x="-0.0601" y="4" relative="1" as="geometry">
            <mxPoint as="offset" />
          </mxGeometry>
        </mxCell>
        <mxCell id="c5EZf8_61AzU6FCxs0_6-37" style="rounded=0;orthogonalLoop=1;jettySize=auto;html=1;exitX=1;exitY=0.5;exitDx=0;exitDy=0;shape=link;strokeColor=#7EA6E0;" edge="1" parent="1" source="c5EZf8_61AzU6FCxs0_6-10" target="c5EZf8_61AzU6FCxs0_6-12">
          <mxGeometry relative="1" as="geometry" />
        </mxCell>
        <mxCell id="c5EZf8_61AzU6FCxs0_6-38" value="5. Send alerts" style="edgeLabel;html=1;align=center;verticalAlign=middle;resizable=0;points=[];" vertex="1" connectable="0" parent="c5EZf8_61AzU6FCxs0_6-37">
          <mxGeometry x="0.0995" relative="1" as="geometry">
            <mxPoint as="offset" />
          </mxGeometry>
        </mxCell>
        <mxCell id="c5EZf8_61AzU6FCxs0_6-39" style="edgeStyle=orthogonalEdgeStyle;rounded=0;orthogonalLoop=1;jettySize=auto;html=1;exitX=0.5;exitY=1;exitDx=0;exitDy=0;entryX=1;entryY=0.25;entryDx=0;entryDy=0;shape=link;strokeColor=#FFB570;" edge="1" parent="1" source="c5EZf8_61AzU6FCxs0_6-10" target="c5EZf8_61AzU6FCxs0_6-6">
          <mxGeometry relative="1" as="geometry">
            <Array as="points">
              <mxPoint x="300" y="160" />
              <mxPoint x="350" y="160" />
              <mxPoint x="350" y="222" />
            </Array>
          </mxGeometry>
        </mxCell>
        <mxCell id="c5EZf8_61AzU6FCxs0_6-40" value="6. Send Email" style="edgeLabel;html=1;align=center;verticalAlign=middle;resizable=0;points=[];" vertex="1" connectable="0" parent="c5EZf8_61AzU6FCxs0_6-39">
          <mxGeometry x="0.475" y="-2" relative="1" as="geometry">
            <mxPoint as="offset" />
          </mxGeometry>
        </mxCell>
        <mxCell id="c5EZf8_61AzU6FCxs0_6-41" style="rounded=0;orthogonalLoop=1;jettySize=auto;html=1;entryX=0;entryY=0;entryDx=0;entryDy=0;entryPerimeter=0;exitX=0.75;exitY=0.283;exitDx=0;exitDy=0;exitPerimeter=0;shape=link;strokeColor=#FFB570;" edge="1" parent="1" source="c5EZf8_61AzU6FCxs0_6-8" target="c5EZf8_61AzU6FCxs0_6-20">
          <mxGeometry relative="1" as="geometry" />
        </mxCell>
        <mxCell id="c5EZf8_61AzU6FCxs0_6-42" value="7. Send &amp;amp; receive Email" style="edgeLabel;html=1;align=center;verticalAlign=middle;resizable=0;points=[];" vertex="1" connectable="0" parent="c5EZf8_61AzU6FCxs0_6-41">
          <mxGeometry x="0.1893" relative="1" as="geometry">
            <mxPoint y="-1" as="offset" />
          </mxGeometry>
        </mxCell>
      </root>
    </mxGraphModel>
  </diagram>
</mxfile>
